HIERARCHY
ROOT Hips
{
	OFFSET 0.00000 0.00000 0.00000
	CHANNELS 6 Xposition Yposition Zposition Zrotation Yrotation Xrotation 
	JOINT LHipJoint
	{
		OFFSET 0 0 0
		CHANNELS 3 Zrotation Yrotation Xrotation
		JOINT LeftUpLeg
		{
			OFFSET 1.39187 -1.60231 0.69152
			CHANNELS 3 Zrotation Yrotation Xrotation
			JOINT LeftLeg
			{
				OFFSET 2.43314 -6.68499 0.00000
				CHANNELS 3 Zrotation Yrotation Xrotation
				JOINT LeftFoot
				{
					OFFSET 2.32059 -6.37578 0.00000
					CHANNELS 3 Zrotation Yrotation Xrotation
					JOINT LeftToeBase
					{
						OFFSET 0.23021 -0.63250 1.71305
						CHANNELS 3 Zrotation Yrotation Xrotation
						End Site
						{
							OFFSET 0.00000 -0.00000 0.91647
						}
					}
				}
			}
		}
	}
	JOINT RHipJoint
	{
		OFFSET 0 0 0
		CHANNELS 3 Zrotation Yrotation Xrotation
		JOINT RightUpLeg
		{
			OFFSET -1.19407 -1.60231 0.69152
			CHANNELS 3 Zrotation Yrotation Xrotation
			JOINT RightLeg
			{
				OFFSET -2.44411 -6.71513 0.00000
				CHANNELS 3 Zrotation Yrotation Xrotation
				JOINT RightFoot
				{
					OFFSET -2.31924 -6.37207 0.00000
					CHANNELS 3 Zrotation Yrotation Xrotation
					JOINT RightToeBase
					{
						OFFSET -0.19473 -0.53502 1.87724
						CHANNELS 3 Zrotation Yrotation Xrotation
						End Site
						{
							OFFSET -0.00000 -0.00000 0.98293
						}
					}
				}
			}
		}
	}
	JOINT LowerBack
	{
		OFFSET 0 0 0
		CHANNELS 3 Zrotation Yrotation Xrotation
		JOINT Spine
		{
			OFFSET -0.01120 1.87307 0.09613
			CHANNELS 3 Zrotation Yrotation Xrotation
			JOINT Spine1
			{
				OFFSET 0.01099 1.87818 0.04834
				CHANNELS 3 Zrotation Yrotation Xrotation
				JOINT Neck
				{
					OFFSET 0 0 0
					CHANNELS 3 Zrotation Yrotation Xrotation
					JOINT Neck1
					{
						OFFSET 0.01702 1.40324 -0.12579
						CHANNELS 3 Zrotation Yrotation Xrotation
						JOINT Head
						{
							OFFSET -0.04239 1.38587 -0.01614
							CHANNELS 3 Zrotation Yrotation Xrotation
							End Site
							{
								OFFSET -0.02510 1.47031 -0.00154
							}
						}
					}
				}
				JOINT LeftShoulder
				{
					OFFSET 0 0 0
					CHANNELS 3 Zrotation Yrotation Xrotation
					JOINT LeftArm
					{
						OFFSET 2.95699 0.62343 0.11653
						CHANNELS 3 Zrotation Yrotation Xrotation
						JOINT LeftForeArm
						{
							OFFSET 4.68382 -0.00000 -0.00000
							CHANNELS 3 Zrotation Yrotation Xrotation
							JOINT LeftHand
							{
								OFFSET 2.98124 -0.00000 -0.00000
								CHANNELS 3 Zrotation Yrotation Xrotation
								JOINT LeftFingerBase
								{
									OFFSET 0 0 0
									CHANNELS 3 Zrotation Yrotation Xrotation
									JOINT LeftHandIndex1
									{
										OFFSET 0.70759 -0.00000 0.00000
										CHANNELS 3 Zrotation Yrotation Xrotation
										End Site
										{
											OFFSET 0.57048 -0.00000 0.00000
										}
									}
								}
								JOINT LThumb
								{
									OFFSET 0 0 0
									CHANNELS 3 Zrotation Yrotation Xrotation
									End Site
									{
										OFFSET 0.57919 -0.00000 0.57919
									}
								}
							}
						}
					}
				}
				JOINT RightShoulder
				{
					OFFSET 0 0 0
					CHANNELS 3 Zrotation Yrotation Xrotation
					JOINT RightArm
					{
						OFFSET -2.99027 0.88714 -0.02793
						CHANNELS 3 Zrotation Yrotation Xrotation
						JOINT RightForeArm
						{
							OFFSET -4.75876 -0.00000 -0.00000
							CHANNELS 3 Zrotation Yrotation Xrotation
							JOINT RightHand
							{
								OFFSET -2.93293 -0.00000 -0.00000
								CHANNELS 3 Zrotation Yrotation Xrotation
								JOINT RightFingerBase
								{
									OFFSET 0 0 0
									CHANNELS 3 Zrotation Yrotation Xrotation
									JOINT RightHandIndex1
									{
										OFFSET -0.83175 -0.00000 0.00000
										CHANNELS 3 Zrotation Yrotation Xrotation
										End Site
										{
											OFFSET -0.67058 -0.00000 0.00000
										}
									}
								}
								JOINT RThumb
								{
									OFFSET 0 0 0
									CHANNELS 3 Zrotation Yrotation Xrotation
									End Site
									{
										OFFSET -0.68082 -0.00000 0.68082
									}
								}
							}
						}
					}
				}
			}
		}
	}
}
MOTION
Frames: 15
Frame Time: .0083333
48.3252 16.6083 -0.0349 0 0 0 0 0 0 -21 0 0 0 0 0 0 0 0 0 0 0 0 0 0 21 0 0 0 0 0 0 0 0 0 0 0 0 0 0 0 0 0 0 0 0 0 0 -16 0 0 21 0 0 11 0 0 0 -8 0 0 0 0 0 0 0 0 0 0 0 0 0 0 0 0 0 0 0 0 8 0 0 0 0 0 0 0 0 0 0 0 0 0 0 0 0 0
48.3252 16.6083 -0.0349 30.1782 -87.7435 -17.4924 0.0000 0.0000 0.0000 -16.2267 -20.0793 -15.9483 1.7904 8.4151 23.9821 0.9852 3.3989 -20.2674 0.0042 -0.4198 -1.1535 0.0000 0.0000 0.0000 16.5326 17.7958 -15.6847 -1.5854 -7.9430 22.5411 2.1626 -25.1793 -13.5304 -0.0016 0.2615 -0.7184 -3.3607 -0.7347 -11.7242 0.8393 -0.9045 -6.0905 2.6570 -0.4798 0.2613 -6.4034 -2.9248 6.5395 2.5737 -4.3491 -0.7845 2.0399 -2.2031 -1.1657 -0.0000 0.0000 0.0000 -96.0690 0.9494 -24.2340 5.7255 -9.8036 -0.4914 -0.0000 -0.0000 73.4581 4.6915 23.1280 1.8462 -7.1250 0.0000 -0.0000 -24.5320 51.4748 -4.1209 -0.0000 0.0000 0.0000 94.1189 -3.5679 13.6597 -7.8756 13.3510 -0.9232 0.0000 0.0000 33.6911 -6.8254 7.9161 -0.9444 7.1250 -0.0000 -0.0000 14.4606 -22.0817 8.2225
48.3214 16.6085 -0.0431 30.4557 -87.7760 -17.7683 0.0000 0.0000 0.0000 -16.2015 -19.9474 -15.9778 1.7908 8.4159 23.9846 0.9915 3.3805 -20.3165 0.0064 -0.5185 -1.4248 0.0000 0.0000 0.0000 16.5740 17.7788 -15.6900 -1.5856 -7.9435 22.5427 2.1544 -25.1397 -13.5357 -0.0007 0.1736 -0.4771 -3.3872 -0.7284 -11.7762 0.8409 -0.8890 -6.0443 2.6746 -0.4726 0.3368 -6.3468 -2.8097 6.3561 2.6969 -4.1773 -0.5929 2.0579 -2.1221 -1.0794 -0.0000 0.0000 0.0000 -96.0417 0.8339 -24.3601 5.6914 -9.7464 -0.4856 -0.0000 -0.0000 73.6343 4.6926 23.2475 1.8557 -7.1250 0.0000 -0.0000 -24.5977 51.5834 -4.2013 -0.0000 0.0000 0.0000 94.1030 -3.4845 13.2828 -7.8283 13.2742 -0.9123 0.0000 0.0000 33.9576 -6.8885 8.5510 -1.0291 7.1250 -0.0000 -0.0000 14.3600 -21.4611 8.3716
48.3156 16.6075 -0.0512 31.7079 -87.7977 -19.0164 0.0000 0.0000 0.0000 -16.2213 -19.8480 -15.9506 1.7843 8.4017 23.9408 0.9982 3.3283 -20.3510 0.0070 -0.5384 -1.4795 0.0000 0.0000 0.0000 16.5708 17.8745 -15.6536 -1.5912 -7.9569 22.5832 2.1630 -25.1899 -13.5998 -0.0009 0.1928 -0.5296 -3.4467 -0.6791 -11.8569 0.8009 -0.8115 -5.9914 2.6747 -0.4346 0.4301 -6.2976 -2.6902 6.0326 2.8841 -3.9926 -0.2295 2.0917 -2.0373 -0.9138 -0.0000 -0.0000 0.0000 -95.9851 0.6609 -24.9078 5.6196 -9.6263 -0.4736 -0.0000 -0.0000 74.4451 4.7041 23.6089 1.8875 -7.1250 0.0000 -0.0000 -24.7911 51.9126 -4.4461 -0.0000 -0.0000 0.0000 94.1310 -3.4270 13.1499 -7.8512 13.3113 -0.9176 0.0000 0.0000 33.8137 -6.7242 8.8888 -1.0437 7.1250 -0.0000 -0.0000 14.4475 -21.1360 8.5363
48.3127 16.6072 -0.0582 32.2803 -87.8407 -19.5472 0.0000 0.0000 0.0000 -16.1741 -19.9930 -15.8867 1.7807 8.3935 23.9159 0.9924 3.4874 -20.3827 0.0062 -0.5078 -1.3954 0.0000 0.0000 0.0000 16.5940 17.9135 -15.6849 -1.5947 -7.9651 22.6082 2.1524 -25.1384 -13.6095 -0.0012 0.2221 -0.6102 -3.4926 -0.6261 -11.9107 0.8031 -0.7349 -5.9851 2.7117 -0.3961 0.4603 -6.2602 -2.5692 5.8324 3.0502 -3.8159 0.0264 2.1271 -1.9544 -0.8045 -0.0000 0.0000 0.0000 -95.9940 0.7057 -24.6233 5.6293 -9.6425 -0.4752 -0.0000 -0.0000 74.4033 4.7178 23.7393 1.9029 -7.1250 0.0000 -0.0000 -24.8529 52.0329 -4.5345 -0.0000 0.0000 0.0000 94.0954 -3.4414 13.4467 -7.9441 13.4622 -0.9391 0.0000 0.0000 33.3281 -6.5713 9.0067 -1.0332 7.1250 -0.0000 -0.0000 14.5452 -21.0250 8.6358
48.3150 16.6077 -0.0642 31.9192 -87.8367 -19.1038 0.0000 0.0000 0.0000 -16.0930 -20.2485 -15.8921 1.7778 8.3871 23.8961 0.9752 3.7605 -20.3725 0.0076 -0.5634 -1.5483 0.0000 0.0000 0.0000 16.6001 17.9063 -15.8102 -1.5981 -7.9733 22.6329 2.1414 -25.0875 -13.6392 -0.0012 0.2261 -0.6213 -3.5162 -0.6256 -11.9235 0.8352 -0.7344 -6.0195 2.7587 -0.3948 0.4315 -6.0828 -2.5209 5.8183 2.9769 -3.7405 0.0674 2.0687 -1.9164 -0.7966 -0.0000 0.0000 0.0000 -96.0563 0.8364 -24.0653 5.6984 -9.7582 -0.4868 -0.0000 -0.0000 73.9304 4.5339 23.6773 1.8239 -7.1250 0.0000 -0.0000 -24.9895 51.9461 -4.5069 -0.0000 0.0000 0.0000 94.0331 -3.4533 13.4568 -7.9871 13.5319 -0.9491 0.0000 0.0000 33.3752 -6.3863 9.1841 -1.0234 7.1250 -0.0000 -0.0000 14.6603 -20.8572 8.7665
48.3176 16.6081 -0.0711 31.2736 -87.7701 -18.3849 0.0000 0.0000 0.0000 -16.0314 -20.4690 -15.9361 1.7777 8.3869 23.8954 0.9632 3.8292 -20.2989 0.0061 -0.5060 -1.3904 0.0000 0.0000 0.0000 16.5961 17.7883 -15.9590 -1.5993 -7.9762 22.6418 2.1292 -25.0292 -13.6588 -0.0015 0.2533 -0.6960 -3.5159 -0.6427 -11.8876 0.8258 -0.7617 -6.0760 2.7462 -0.4076 0.3548 -5.8551 -2.4990 5.9163 2.8699 -3.7035 0.0365 1.9949 -1.8969 -0.8302 -0.0000 0.0000 0.0000 -96.0597 0.8365 -24.4986 5.6933 -9.7497 -0.4860 -0.0000 -0.0000 74.3962 4.3280 23.7655 1.7469 -7.1250 0.0000 -0.0000 -25.2327 51.9912 -4.5846 -0.0000 0.0000 0.0000 94.0225 -3.4950 13.4233 -7.9921 13.5400 -0.9503 0.0000 0.0000 33.3995 -6.3468 9.0730 -1.0049 7.1250 -0.0000 -0.0000 14.6974 -20.9662 8.7527
48.3162 16.6082 -0.0804 30.5435 -87.7745 -17.6366 0.0000 0.0000 0.0000 -15.9572 -20.5713 -15.9160 1.7788 8.3893 23.9030 0.9581 3.8498 -20.2622 0.0059 -0.4970 -1.3655 0.0000 0.0000 0.0000 16.6701 17.6765 -16.0275 -1.5999 -7.9776 22.6461 2.1209 -24.9738 -13.5415 -0.0014 0.2420 -0.6648 -3.5106 -0.6374 -11.8728 0.8305 -0.7566 -6.0898 2.7489 -0.4047 0.3321 -5.7985 -2.4017 5.9499 3.0017 -3.5704 0.0646 2.0257 -1.8331 -0.8324 0.0000 0.0000 0.0000 -96.0286 0.7879 -25.0123 5.6469 -9.6719 -0.4781 -0.0000 -0.0000 74.9224 4.1675 23.9302 1.6929 -7.1250 0.0000 -0.0000 -25.4785 52.1126 -4.7133 0.0000 0.0000 0.0000 93.9843 -3.5319 13.8476 -8.0424 13.6216 -0.9621 0.0000 0.0000 32.7799 -6.4159 8.6970 -0.9741 7.1250 -0.0000 -0.0000 14.6813 -21.3305 8.6167
48.3133 16.6082 -0.0920 30.6710 -87.8760 -17.7843 0.0000 0.0000 0.0000 -15.8838 -20.5626 -15.8612 1.7802 8.3923 23.9121 0.9533 4.0889 -20.3538 0.0114 -0.6903 -1.8970 0.0000 0.0000 0.0000 16.7721 17.7159 -15.9979 -1.6008 -7.9797 22.6523 2.1180 -24.9498 -13.4663 -0.0010 0.2063 -0.5669 -3.5558 -0.6128 -11.8968 0.8737 -0.7166 -6.0466 2.8238 -0.3838 0.3879 -5.7868 -2.2856 5.8679 3.1468 -3.4091 0.1549 2.0648 -1.7554 -0.7955 0.0000 -0.0000 0.0000 -96.0256 0.7563 -25.0011 5.6336 -9.6497 -0.4759 -0.0000 -0.0000 74.8774 3.8924 23.9834 1.5842 -7.1250 0.0000 -0.0000 -25.7667 52.1142 -4.7738 0.0000 -0.0000 0.0000 93.9115 -3.4808 13.9947 -8.0500 13.6338 -0.9639 0.0000 0.0000 32.5632 -6.4823 8.7582 -0.9912 7.1250 -0.0000 -0.0000 14.6291 -21.2692 8.6051
48.3103 16.6081 -0.1039 30.8523 -87.9590 -17.9782 0.0000 0.0000 0.0000 -15.8116 -20.5273 -15.8280 1.7793 8.3905 23.9065 0.9492 4.2807 -20.4272 0.0146 -0.7795 -2.1423 0.0000 0.0000 0.0000 16.8562 17.8016 -15.9680 -1.6035 -7.9861 22.6718 2.1075 -24.9040 -13.5217 -0.0002 0.0887 -0.2438 -3.5854 -0.6071 -11.8791 0.9110 -0.7054 -6.0222 2.8807 -0.3772 0.4035 -5.7636 -2.1900 5.8147 3.1989 -3.2770 0.2090 2.0733 -1.6904 -0.7752 -0.0000 0.0000 0.0000 -96.0488 0.7535 -24.8601 5.6477 -9.6733 -0.4783 -0.0000 -0.0000 74.7231 3.6965 24.0125 1.5060 -7.1250 0.0000 -0.0000 -25.9667 52.1074 -4.8107 -0.0000 0.0000 0.0000 93.8260 -3.4731 14.1652 -8.0725 13.6703 -0.9692 0.0000 0.0000 32.6268 -6.4048 8.7366 -0.9768 7.1250 -0.0000 -0.0000 14.6857 -21.2922 8.6327
48.3068 16.6076 -0.1147 30.5070 -87.9883 -17.6169 0.0000 0.0000 0.0000 -15.7358 -20.4948 -15.8183 1.7731 8.3765 23.8637 0.9532 4.1919 -20.4129 0.0107 -0.6675 -1.8344 0.0000 0.0000 0.0000 16.9252 17.8556 -15.9869 -1.6111 -8.0042 22.7268 2.1036 -24.8886 -13.5538 -0.0000 0.0078 -0.0213 -3.5545 -0.6306 -11.8559 0.9292 -0.7409 -6.0245 2.8781 -0.3951 0.3914 -5.8400 -2.0767 5.8142 3.3476 -3.1297 0.2411 2.1328 -1.6194 -0.7694 -0.0000 -0.0000 0.0000 -96.0450 0.8151 -24.4952 5.6871 -9.7393 -0.4849 -0.0000 -0.0000 74.3718 3.5305 24.0155 1.4384 -7.1250 0.0000 -0.0000 -26.1233 52.0821 -4.8262 -0.0000 -0.0000 0.0000 93.7345 -3.5083 14.5522 -8.1444 13.7867 -0.9863 0.0000 0.0000 32.4267 -6.0872 8.2492 -0.8766 7.1250 -0.0000 -0.0000 14.9538 -21.7731 8.6318
48.3065 16.6065 -0.1210 32.0194 -87.9122 -19.0801 0.0000 0.0000 0.0000 -15.7841 -20.5944 -15.8058 1.7625 8.3527 23.7906 0.9486 4.1208 -20.3287 0.0098 -0.6386 -1.7550 0.0000 0.0000 0.0000 16.8544 17.7364 -16.1182 -1.6230 -8.0322 22.8119 2.0983 -24.8596 -13.5372 -0.0006 0.1529 -0.4201 -3.5498 -0.6838 -11.8599 0.8988 -0.8107 -6.0171 2.8352 -0.4308 0.4062 -5.8709 -1.9834 5.7174 3.4889 -3.0019 0.3546 2.1790 -1.5582 -0.7211 -0.0000 0.0000 0.0000 -96.0148 0.8542 -24.3000 5.7232 -9.7998 -0.4910 -0.0000 -0.0000 74.2980 3.3809 23.6624 1.3582 -7.1250 0.0000 -0.0000 -26.0552 51.7410 -4.5848 -0.0000 0.0000 0.0000 93.6851 -3.4252 14.4887 -8.1318 13.7663 -0.9833 0.0000 0.0000 32.3044 -6.0888 8.4594 -0.8990 7.1250 -0.0000 -0.0000 14.9334 -21.5689 8.6911
48.3053 16.6060 -0.1266 34.3440 -87.7909 -21.3815 0.0000 0.0000 0.0000 -15.9112 -20.8150 -15.7100 1.7523 8.3298 23.7202 0.9341 4.2625 -20.2750 0.0111 -0.6814 -1.8726 0.0000 0.0000 0.0000 16.7329 17.4466 -16.2772 -1.6340 -8.0581 22.8905 2.0606 -24.6793 -13.6138 -0.0017 0.2633 -0.7235 -3.5786 -0.7565 -11.8742 0.8461 -0.8983 -5.9557 2.7852 -0.4757 0.4845 -5.7875 -1.9335 5.4972 3.5288 -2.9180 0.4547 2.1699 -1.5159 -0.6560 -0.0000 0.0000 0.0000 -96.0176 0.6937 -25.0021 5.7095 -9.7768 -0.4887 -0.0000 -0.0000 75.1257 3.3670 23.3086 1.3335 -7.1250 0.0000 -0.0000 -25.8641 51.4215 -4.3354 -0.0000 0.0000 0.0000 93.6542 -3.3212 14.7222 -8.1737 13.8341 -0.9933 0.0000 0.0000 31.9073 -6.4849 9.2148 -1.0428 7.1250 -0.0000 -0.0000 14.5884 -20.8247 8.7317
48.2991 16.6056 -0.1375 35.7913 -87.7603 -22.8697 0.0000 0.0000 0.0000 -15.9620 -20.9841 -15.5315 1.7440 8.3111 23.6629 0.9236 4.4748 -20.3027 0.0112 -0.6846 -1.8814 0.0000 0.0000 0.0000 16.7285 17.3093 -16.2888 -1.6429 -8.0788 22.9538 2.0279 -24.5318 -13.7541 -0.0005 0.1493 -0.4103 -3.6154 -0.8106 -11.9269 0.8222 -0.9551 -5.8258 2.7725 -0.5060 0.6533 -5.7431 -1.8615 5.2916 3.6261 -2.8054 0.4566 2.1882 -1.4587 -0.6250 -0.0000 -0.0000 0.0000 -96.0116 0.4015 -26.0802 5.6555 -9.6863 -0.4796 -0.0000 -0.0000 76.3269 3.2814 23.2247 1.2952 -7.1250 0.0000 -0.0000 -25.8955 51.3324 -4.2821 -0.0000 -0.0000 0.0000 93.6252 -3.2383 15.4534 -8.3380 14.0992 -1.0329 0.0000 0.0000 31.1806 -6.4513 9.0690 -1.0211 7.1250 -0.0000 -0.0000 14.6244 -20.9675 8.7057
48.2926 16.6047 -0.1525 36.5824 -87.8911 -23.7053 0.0000 0.0000 0.0000 -15.8792 -21.0089 -15.3982 1.7404 8.3031 23.6386 0.9119 4.7697 -20.3725 0.0145 -0.7780 -2.1381 0.0000 0.0000 0.0000 16.8498 17.4810 -16.1833 -1.6478 -8.0903 22.9887 2.0334 -24.5733 -13.8506 -0.0002 0.0804 -0.2208 -3.6358 -0.7909 -11.9392 0.8436 -0.9211 -5.7403 2.8098 -0.4895 0.7474 -5.6983 -1.7954 5.2281 3.7177 -2.7089 0.4221 2.2081 -1.4104 -0.6294 0.0000 -0.0000 0.0000 -95.9828 0.2802 -25.9879 5.6491 -9.6756 -0.4785 -0.0000 -0.0000 76.2660 2.8829 23.3296 1.1425 -7.1250 0.0000 -0.0000 -26.3237 51.3616 -4.3815 0.0000 -0.0000 0.0000 93.5875 -3.1312 15.7828 -8.4107 14.2164 -1.0507 0.0000 0.0000 30.7965 -5.9045 8.4054 -0.8661 7.1250 -0.0000 -0.0000 15.0684 -21.6253 8.7553
